<svg xmlns="http://www.w3.org/2000/svg" xmlns:xlink="http://www.w3.org/1999/xlink" viewBox="0 0 284.09 91.95"><defs><style>.cls-1{isolation:isolate;}.cls-2{fill:url(#linear-gradient);}.cls-10,.cls-11,.cls-3{mix-blend-mode:multiply;}.cls-11,.cls-3,.cls-4{opacity:0.5;}.cls-3{fill:url(#linear-gradient-2);}.cls-5,.cls-7,.cls-8{mix-blend-mode:overlay;}.cls-5{opacity:0.75;}.cls-24,.cls-6,.cls-7{fill:#fff;}.cls-9{fill:url(#linear-gradient-3);}.cls-10{opacity:0.25;fill:url(#linear-gradient-4);}.cls-12{fill:url(#linear-gradient-5);}.cls-13{fill:url(#linear-gradient-6);}.cls-14{fill:url(#linear-gradient-7);}.cls-15{fill:url(#linear-gradient-8);}.cls-16{fill:url(#linear-gradient-9);}.cls-17{fill:url(#linear-gradient-10);}.cls-18{fill:url(#linear-gradient-11);}.cls-19{fill:url(#linear-gradient-12);}.cls-20{fill:url(#linear-gradient-13);}.cls-21{fill:url(#linear-gradient-14);}.cls-22{fill:url(#linear-gradient-15);}.cls-23{fill:url(#linear-gradient-16);}.cls-24{font-size:11.46px;font-family:OpenSans-SemiBoldItalic, Open Sans;font-weight:600;font-style:italic;}.cls-25{mix-blend-mode:screen;opacity:0.35;fill:url(#linear-gradient-17);}</style><linearGradient id="linear-gradient" x1="829.62" y1="179.16" x2="57.88" y2="22.64" gradientUnits="userSpaceOnUse"><stop offset="0" stop-color="#00e3cc"/><stop offset="0.12" stop-color="#04d9cf"/><stop offset="0.32" stop-color="#10bdd7"/><stop offset="0.57" stop-color="#238fe5"/><stop offset="0.88" stop-color="#3c51f7"/><stop offset="1" stop-color="#4737ff"/></linearGradient><linearGradient id="linear-gradient-2" x1="0" y1="47.86" x2="88.18" y2="47.86" xlink:href="#linear-gradient"/><linearGradient id="linear-gradient-3" x1="155.82" y1="167.37" x2="9.56" y2="5.99" xlink:href="#linear-gradient"/><linearGradient id="linear-gradient-4" x1="5155.56" y1="1361.08" x2="5032.81" y2="1225.63" gradientTransform="translate(5105.53 1293.68) rotate(180)" xlink:href="#linear-gradient"/><linearGradient id="linear-gradient-5" x1="98.33" y1="38.74" x2="112.66" y2="38.74" xlink:href="#linear-gradient"/><linearGradient id="linear-gradient-6" x1="115" y1="38.27" x2="127.14" y2="38.27" xlink:href="#linear-gradient"/><linearGradient id="linear-gradient-7" x1="130.31" y1="37.82" x2="136.1" y2="37.82" xlink:href="#linear-gradient"/><linearGradient id="linear-gradient-8" x1="136.66" y1="40.66" x2="148.73" y2="40.66" xlink:href="#linear-gradient"/><linearGradient id="linear-gradient-9" x1="151.66" y1="38.27" x2="163.8" y2="38.27" xlink:href="#linear-gradient"/><linearGradient id="linear-gradient-10" x1="170.68" y1="43.03" x2="183.25" y2="43.03" xlink:href="#linear-gradient"/><linearGradient id="linear-gradient-11" x1="186.1" y1="40.87" x2="198.14" y2="40.87" xlink:href="#linear-gradient"/><linearGradient id="linear-gradient-12" x1="199.78" y1="43.27" x2="213.1" y2="43.27" xlink:href="#linear-gradient"/><linearGradient id="linear-gradient-13" x1="213.73" y1="37.3" x2="226.16" y2="37.3" xlink:href="#linear-gradient"/><linearGradient id="linear-gradient-14" x1="228.07" y1="40.66" x2="240.16" y2="40.66" xlink:href="#linear-gradient"/><linearGradient id="linear-gradient-15" x1="246.86" y1="40.77" x2="258.23" y2="40.77" xlink:href="#linear-gradient"/><linearGradient id="linear-gradient-16" x1="259.76" y1="37.3" x2="273.73" y2="37.3" xlink:href="#linear-gradient"/><linearGradient id="linear-gradient-17" x1="44.31" y1="104.1" x2="44.31" y2="7.13" gradientUnits="userSpaceOnUse"><stop offset="0" stop-color="#fff"/><stop offset="1"/></linearGradient></defs><g class="cls-1"><g id="Layer_2" data-name="Layer 2"><g id="Layer_3" data-name="Layer 3"><rect class="cls-2" x="44.09" y="0.18" width="240" height="88"/><circle class="cls-3" cx="44.09" cy="47.86" r="44.09"/><g class="cls-4"><g class="cls-5"><polygon class="cls-6" points="281.24 70.58 278.41 63.25 284.09 65.59 281.24 70.58"/><polygon class="cls-6" points="267.29 0.88 267.7 7.42 271.99 6.83 267.29 0.88"/><polygon class="cls-6" points="237.68 18.18 238.43 21.19 242.25 19.74 237.68 18.18"/><polygon class="cls-6" points="142.54 27.97 144.58 34.11 147.81 31.32 142.54 27.97"/><polygon class="cls-6" points="73.49 50.3 69.62 55.66 66.87 52.78 66.66 52.57 66.13 52.02 66.13 50.08 71.41 50.24 71.44 50.24 72.04 50.26 72.05 50.26 73.49 50.3"/><polygon class="cls-6" points="96.76 57.5 101.44 56.11 100.7 59.69 96.76 57.5"/><polygon class="cls-6" points="112.23 28.61 115.09 31.71 116.47 28.08 112.23 28.61"/></g><path class="cls-7" d="M100.64,36.19s0,0,0,0a.61.61,0,0,1-.05-.12L79.82,46.16s0,0,0,0a.58.58,0,0,1,.05.14s0,.08,0,.12l20.79-10.14h0A.27.27,0,0,1,100.64,36.19ZM76.77,47.78l-.07-.1-5.26,2.56h0l-4.75,2.33-.53.26v.31l.74-.36L72,50.26h0l4.82-2.35A1.13,1.13,0,0,1,76.77,47.78Zm-7.63-26a.58.58,0,0,1,0,.19.37.37,0,0,1,0,.11l18.13,7.4a.56.56,0,0,1,0-.12l.07-.16Zm31.5,14.37s0,0,0,0a.61.61,0,0,1-.05-.12L79.82,46.16s0,0,0,0a.58.58,0,0,1,.05.14s0,.08,0,.12l20.79-10.14h0A.27.27,0,0,1,100.64,36.19ZM69.14,21.82a.58.58,0,0,1,0,.19.37.37,0,0,1,0,.11l18.13,7.4a.56.56,0,0,1,0-.12l.07-.16Zm31.5,14.37s0,0,0,0a.61.61,0,0,1-.05-.12L79.82,46.16s0,0,0,0a.58.58,0,0,1,.05.14s0,.08,0,.12l20.79-10.14h0A.27.27,0,0,1,100.64,36.19ZM69.14,21.82a.58.58,0,0,1,0,.19.37.37,0,0,1,0,.11l18.13,7.4a.56.56,0,0,1,0-.12l.07-.16Zm31.5,14.37s0,0,0,0a.21.21,0,0,1-.05-.12L79.82,46.16s0,0,0,0a.58.58,0,0,1,.05.14s0,.08,0,.12l20.79-10.14A.19.19,0,0,1,100.64,36.19ZM69.14,21.82h0a1.06,1.06,0,0,1,0,.19.37.37,0,0,1,0,.11l18.13,7.4a.56.56,0,0,1,0-.12l.07-.16ZM139.56.24l-5.68,18.44-1.55,5.05-2.72,8.81-.65,2.1-1.79-1.83-12.78-13,0-.12h-.06l10.69-14,3.83-5,.34-.45h-.36l-3.85,5L114.12,19.51l-9.23-9.41L117.43.24H117L104.69,9.89,95.23.24h-.4l9.64,9.82L97.56,15.5l-1.1.86h0l-.15,0-.38-1.21h0l-.46-1.47L91.25.24H91l4.67,15h0L96,16.28l-1.15-.2L75.1,12.64,84.84.24h-.36l-9.7,12.34-8.65-1.5v.28l8.45,1.47-6,7.71-.61.78-.18-.07,0,0-.88-.36h0l-.74-.3v.3l.61.25,1,.4,0,0-.08,0-.08.24-.53.67-.87,1.11V24l1.08-1.37-1.08,2.94v.82l1.33-3.64.31-.84.17-.2.4,1L77.16,45.3h0l.54,1.36-1-.84h0L66.13,37.24v.37L76.54,46.1h0l1.27,1-1.12.55-5.26,2.56h0l-4.75,2.33-.53.26v.31l.74-.36L72,50.26h0l4.82-2.35,1.1-.54.43,1.1,6,15.32L85,65.2l-1.91.17L66.13,66.86v.28l16.92-1.49,2-.18.07.18L86,64.21v0l15.45-27.26.76-1.34,1.63,0,22.73-.46,2.82-.06-.16-.17.67-2.17h0L132.54,24l1.54-5L139.86.24ZM97.76,15.7l6.91-5.43,9.09,9.27L98.14,16.67l-1.31-.24Zm-29,5,6.14-7.82,19.82,3.46,1.33.23.09.26-.8,1.34h0L89.08,28.73l-.6,1-1.19-.49L69.14,21.82h0l-1-.39Zm8.66,24.45L68.6,22.67h0l-.34-.86.79.32,18.13,7.4,1.15.47-.58,1h0L79.23,45.34h0l-.92,1.55-.18.09Zm23.75-8.37h0L85.73,64l-.55,1-.49-1.24-6-15.34-.37-1,.2-.34,1.38-.68h0l20.79-10.14h0l1-.51Zm-.6-.75L79.82,46.16l-1,.51.67-1.13h0L88,31.1l.59-1,1,.41L100.5,35l1.24.51Zm0-1.35L89.7,30.23l-1-.39.56-.95h0l6.26-10.55h0l.67-1.12.4,1.3h0l4.79,15.33.42,1.36Zm1.55.46-.43-1.39L96.93,18.45l-.49-1.57.12-.21,1.57.29,15.73,2.89L103,34Zm24.32-.33-22.66.46-1.43,0,.89-1.16,10.89-14.22L127,33l1.73,1.76Zm-57.32-13a.58.58,0,0,1,0,.19.37.37,0,0,1,0,.11l18.13,7.4a.56.56,0,0,1,0-.12l.07-.16Zm31.5,14.37s0,0,0,0a.61.61,0,0,1-.05-.12L79.82,46.16s0,0,0,0a.58.58,0,0,1,.05.14s0,.08,0,.12l20.79-10.14h0A.27.27,0,0,1,100.64,36.19ZM69.14,21.82a.58.58,0,0,1,0,.19.37.37,0,0,1,0,.11l18.13,7.4a.56.56,0,0,1,0-.12l.07-.16Zm31.5,14.37s0,0,0,0a.61.61,0,0,1-.05-.12L79.82,46.16s0,0,0,0a.58.58,0,0,1,.05.14s0,.08,0,.12l20.79-10.14h0A.27.27,0,0,1,100.64,36.19ZM69.14,21.82a.58.58,0,0,1,0,.19.37.37,0,0,1,0,.11l18.13,7.4a.56.56,0,0,1,0-.12l.07-.16Zm31.5,14.37s0,0,0,0a.61.61,0,0,1-.05-.12L79.82,46.16s0,0,0,0a.58.58,0,0,1,.05.14s0,.08,0,.12l20.79-10.14h0A.27.27,0,0,1,100.64,36.19Z"/><path class="cls-6" d="M103.76,35a1.69,1.69,0,1,1-2.05-1.22A1.69,1.69,0,0,1,103.76,35Z"/><path class="cls-6" d="M89.71,29.55a1.31,1.31,0,1,1-1.59-1A1.31,1.31,0,0,1,89.71,29.55Z"/><path class="cls-6" d="M79.87,46.31A1.75,1.75,0,1,1,77.74,45,1.74,1.74,0,0,1,79.87,46.31Z"/><path class="cls-6" d="M130.67,33.91a2.15,2.15,0,1,1-2.62-1.56A2.16,2.16,0,0,1,130.67,33.91Z"/><path class="cls-6" d="M86.48,65.07a1.75,1.75,0,1,1-2.12-1.27A1.75,1.75,0,0,1,86.48,65.07Z"/><path class="cls-6" d="M98.09,16.36A1.75,1.75,0,1,1,96,15.09,1.74,1.74,0,0,1,98.09,16.36Z"/><path class="cls-6" d="M69.12,21.32a1.25,1.25,0,1,1-1.52-.91A1.25,1.25,0,0,1,69.12,21.32Z"/><g class="cls-8"><path class="cls-6" d="M252.89,6.47l2.4,12.59,6.91-4.36Zm.44.76,8.4,7.43-6.24,3.94Z"/><path class="cls-6" d="M182.83,54.37l-2-1.37-.12-.08-1.85,7.31,2.4-1.11,2.13-1,3-1.39Zm.37,3.53-2.13,1-1.83.84,1.26-5,.34-1.35,1.95,1.31,3,2Z"/><path class="cls-6" d="M201.83,22l.91,4.69,4-2.64Zm.38.47,3.92,1.64-3.19,2.11Z"/><path class="cls-6" d="M101.81,43.46l2.65,4.14.29.46,2-.59,6.61-1.93Zm4.11,4-1,.31-.13-.2-2.35-3.68,9.75,1.75Z"/><path class="cls-6" d="M146,16.5l-2.62-2.61-1.25-1.24-.05.11-2.63,4.85,2.63-.26,1.3-.13L146,17l.44,0Zm-2.62.44-1.3.12-2.12.21,2.12-3.92.12-.24,1.18,1.17,2.42,2.42Z"/><path class="cls-6" d="M147.3,4.81l-1.47-2.33L145,6l2.32-.59.33-.08Zm-1.94.81L146,3.19l1.23,2Z"/><path class="cls-6" d="M87.49,47.69,86.08,52l4.59-2.79Zm.17.4,2.42,1.16-3.5,2.12Z"/><path class="cls-6" d="M128.88,18.18l-1.39-6-.94.35-4.39,1.62,8.12,10.1Zm-2.24-5.41.64-.24,1,4.5,1.4,6.07-7.09-8.84Z"/></g><g class="cls-5"><circle class="cls-6" cx="227.48" cy="17.8" r="0.72" transform="translate(2.56 56.2) rotate(-14.16)"/><path class="cls-6" d="M269.9,11.55a1,1,0,1,1-1.16-.69A1,1,0,0,1,269.9,11.55Z"/><path class="cls-6" d="M197.19,87a.72.72,0,0,1-1.39.35.72.72,0,0,1,.52-.87A.73.73,0,0,1,197.19,87Z"/><path class="cls-6" d="M220.4,86.31a1,1,0,1,1-1.15-.69A.95.95,0,0,1,220.4,86.31Z"/><path class="cls-6" d="M128,85a.71.71,0,1,1-.86-.52A.71.71,0,0,1,128,85Z"/><path class="cls-6" d="M183.87,4.91a.73.73,0,0,1-.52.87.72.72,0,0,1-.87-.52.7.7,0,0,1,.52-.87A.71.71,0,0,1,183.87,4.91Z"/><path class="cls-6" d="M270.31,69.7a.6.6,0,0,1-1.16.29.59.59,0,0,1,.43-.72A.6.6,0,0,1,270.31,69.7Z"/><path class="cls-6" d="M262.54,24.36a.59.59,0,0,1-.43.72.6.6,0,0,1-.73-.43.61.61,0,0,1,.44-.73A.6.6,0,0,1,262.54,24.36Z"/></g></g><circle class="cls-6" cx="44.09" cy="44.09" r="44.09"/><circle class="cls-9" cx="44.09" cy="44.09" r="39.34"/><path class="cls-10" d="M5,44.09a39.34,39.34,0,1,1,78.67,0v.38C83.43,23.34,65.91,6.26,44.3,6.26S5.18,23.34,5,44.47C5,44.35,5,44.22,5,44.09Z"/><path class="cls-6" d="M52,43.25a1.46,1.46,0,0,0-1.4-1.11H37.63a1.45,1.45,0,0,0-1.41,1.11,1.33,1.33,0,0,0,0,.34v1.82a1.45,1.45,0,0,0,1.46,1.45H50.56A1.45,1.45,0,0,0,52,45.41V43.59A2,2,0,0,0,52,43.25ZM50.5,45.36H37.68V43.65H50.5ZM52,43.25a1.46,1.46,0,0,0-1.4-1.11H37.63a1.45,1.45,0,0,0-1.41,1.11,1.33,1.33,0,0,0,0,.34v1.82a1.45,1.45,0,0,0,1.46,1.45H50.56A1.45,1.45,0,0,0,52,45.41V43.59A2,2,0,0,0,52,43.25ZM50.5,45.36H37.68V43.65H50.5Zm17.68-6h0a1.45,1.45,0,0,0,1.45-1.45V34.1a1.45,1.45,0,0,0-1.45-1.44H58.1a1.35,1.35,0,0,1-.61-.16l-12.65-7V22.94h5.78a1.46,1.46,0,0,0,1.45-1.45v-3.1a1.46,1.46,0,0,0-1.45-1.45H44.79a1.45,1.45,0,0,0-1.45,1.45v7.08l-6.48,3.59a.76.76,0,0,0-.29,1,.74.74,0,0,0,1,.29l6.5-3.61,12.68,7.05a2.67,2.67,0,0,0,1.33.35H68.18v3.69H20V34.16H30.07a2.73,2.73,0,0,0,1.34-.35l3.14-1.75a.75.75,0,0,0,.29-1,.76.76,0,0,0-1-.29L30.68,32.5a1.26,1.26,0,0,1-.61.16H20A1.44,1.44,0,0,0,18.5,34.1v3.8A1.44,1.44,0,0,0,20,39.35h0V63.64a1.75,1.75,0,0,0-1.49,1.73v1a1.75,1.75,0,0,0,1.75,1.76H67.93a1.75,1.75,0,0,0,1.75-1.76v-1a1.75,1.75,0,0,0-1.5-1.73ZM44.84,18.44h5.72v3H44.84ZM55.55,39.35h6.63V40.6a.25.25,0,0,1-.24.25H55.8a.25.25,0,0,1-.25-.25Zm6.63,23v1.25H55.55V62.37a.25.25,0,0,1,.25-.25h6.14A.25.25,0,0,1,62.18,62.37Zm-28-21.77V39.35H54.05V40.6a1.75,1.75,0,0,0,1.5,1.73v9.5a.75.75,0,1,0,1.5,0V42.35h3.64V60.62H57.05V55.33a.75.75,0,1,0-1.5,0v5.31a1.75,1.75,0,0,0-1.5,1.73v1.25H49.94V51.41a1.75,1.75,0,0,0-1.75-1.75H40a1.75,1.75,0,0,0-1.75,1.75V63.62H34.13V62.37a1.76,1.76,0,0,0-1.5-1.73V42.33A1.76,1.76,0,0,0,34.13,40.6ZM48.44,51.41V63.62h-8.7V51.41a.25.25,0,0,1,.25-.25h8.2A.25.25,0,0,1,48.44,51.41ZM26.25,62.12h6.13a.25.25,0,0,1,.25.25v1.25H26V62.37A.25.25,0,0,1,26.25,62.12Zm4.88-1.5H27.5V42.35h3.63ZM26,39.35h6.64V40.6a.25.25,0,0,1-.25.25H26.25A.25.25,0,0,1,26,40.6Zm-4.49,0h3V40.6A1.75,1.75,0,0,0,26,42.33V60.64a1.74,1.74,0,0,0-1.47,1.46,1.23,1.23,0,0,0,0,.27v1.25h-3Zm46.68,27a.25.25,0,0,1-.25.25H20.25a.25.25,0,0,1-.26-.25v-1a.25.25,0,0,1,.26-.25H67.93a.25.25,0,0,1,.25.25Zm-1.49-2.75h-3V62.37a1.76,1.76,0,0,0-1.51-1.73V42.33a1.76,1.76,0,0,0,1.51-1.73V39.35h3ZM37.63,46.86H50.56A1.45,1.45,0,0,0,52,45.41V43.59a2,2,0,0,0,0-.34,1.46,1.46,0,0,0-1.4-1.11H37.63a1.45,1.45,0,0,0-1.41,1.11,1.33,1.33,0,0,0,0,.34v1.82A1.45,1.45,0,0,0,37.63,46.86Zm12.87-1.5H37.68V43.65H50.5ZM44.09,29.67a3.42,3.42,0,1,0,3.41,3.42A3.42,3.42,0,0,0,44.09,29.67Zm0,5.33A1.91,1.91,0,1,1,46,33.09,1.91,1.91,0,0,1,44.09,35Z"/><g class="cls-11"><path class="cls-12" d="M105.74,32.11a3.67,3.67,0,0,1,3.83,3.77h3.09v-.25a6.23,6.23,0,0,0-5.85-6.18,7.68,7.68,0,0,0-1.09-.07h-.08a9.5,9.5,0,0,0-1.64.16,2.59,2.59,0,0,0-.4.09c-3.3.81-5.27,3.63-5.27,8.07v2.17a14.33,14.33,0,0,0,.13,1.91,9.76,9.76,0,0,0,.48,1.88c1,2.89,3.43,4.45,6.77,4.45,4.59,0,7-3.06,7-6v-.26h-3.09a3.45,3.45,0,0,1-3.78,3.53c-2.56,0-4.24-1.7-4.24-5.5V37.7C101.55,34,103.24,32.11,105.74,32.11Z"/><path class="cls-13" d="M122.13,33.57a4,4,0,0,0-3.88,2.19h-.13v-7H115v19h3.12V39.66c0-2.22,1.19-3.41,3-3.41S124,37.5,124,39.65v8.1h3.12V39C127.14,35.68,125.16,33.57,122.13,33.57Z"/><path class="cls-14" d="M132.94,27.9l-2.62,3.77h2.57l3.21-3.77Zm-2.63,5.89v14h3.17v-14Z"/><path class="cls-15" d="M143.85,33.57a4.2,4.2,0,0,0-4,2.19h-.13v-2h-3.05v14h3.1V39.6c0-2.21,1.14-3.35,3-3.35s2.89,1,2.89,3.26v8.24h3.12V38.52A4.58,4.58,0,0,0,143.85,33.57Z"/><path class="cls-16" d="M158.78,33.57a4,4,0,0,0-3.87,2.19h-.13v-7h-3.12v19h3.12V39.66c0-2.22,1.19-3.41,3-3.41s2.89,1.25,2.89,3.4v8.1h3.12V39C163.8,35.68,161.82,33.57,158.78,33.57Z"/><path class="cls-17" d="M180.19,33.79v2h-.11c-.57-1.3-1.94-2.2-4.07-2.2a4.92,4.92,0,0,0-4.91,3.57,8.15,8.15,0,0,0-.41,2.41c0,.1,0,.21,0,.31V41.6a8,8,0,0,0,.81,3.76,3.87,3.87,0,0,0,.21.34A4.78,4.78,0,0,0,176,47.94c2,0,3.47-.89,4-2.16h.12v6.7h3.12V33.79Zm-.06,7.62c0,2.27-1.08,4-3.12,4a2.81,2.81,0,0,1-2.34-1.09,1.85,1.85,0,0,1-.21-.33,5.18,5.18,0,0,1-.6-2.62V40.16c0-.22,0-.44,0-.65s0-.29.05-.44c.28-1.87,1.34-2.93,3.05-2.93,1.95,0,3.14,1.5,3.14,4Z"/><path class="cls-18" d="M195,33.79v8.38a2.83,2.83,0,0,1-2.95,3.13c-1.5,0-2.86-.71-2.86-3.09V33.79H186.1v9.26c0,3.26,2,4.91,4.83,4.91,2.29,0,3.58-1.1,4-2.19h.14v2h3v-14Z"/><path class="cls-19" d="M209.81,33.79,206.55,45h-.12l-3.21-11.19h-3.44l4.92,14-.15.57a2.25,2.25,0,0,1-2.6,2,6.72,6.72,0,0,1-1.11-.09v2.32a12.12,12.12,0,0,0,1.76.14c3.35,0,4.57-1.93,5.45-4.31l.36-1c0-.09,4.69-13.7,4.69-13.7Z"/><path class="cls-20" d="M223.3,26.62h-2.57l3.43,3.08h2Zm-2.57,2.08h-2l-3.54,3.17h2.57l1.91-1.78h.13l2,1.78h2.57Zm5.11,12.75V40.2c0-4-2.12-6.65-6-6.65s-6.07,2.61-6.07,6.67v1.17c0,4,2.22,6.6,6.25,6.6s5.49-2.46,5.72-4.33h-3c-.19,1-1,1.86-2.72,1.86-2.13,0-3.15-1.69-3.15-3.63v-.44Zm-9-2.12c0-1.95,1.13-3.37,3-3.37s3,1.4,3,3.37v0h-6Z"/><path class="cls-21" d="M235.28,33.57a4.24,4.24,0,0,0-4,2.19h-.11v-2h-3.07v14h3.12V39.6c0-2.21,1.13-3.35,2.95-3.35s2.9,1,2.9,3.26v8.24h3.12V38.52A4.58,4.58,0,0,0,235.28,33.57Z"/><path class="cls-22" d="M253.67,39.58c-1.53-.27-3.57-.47-3.57-2,0-1.14,1-1.83,2.44-1.83a2.21,2.21,0,0,1,2.5,2h2.78c0-2.53-1.92-4.24-5.21-4.24-2.88,0-5.49,1.25-5.49,4.32,0,2.73,2.07,3.49,4.61,4,1.86.36,3.46.59,3.46,2,0,1-.77,1.89-2.65,1.89-1.61,0-2.5-.8-2.64-1.88h-3c0,2.5,2.13,4.11,5.52,4.11,3.61,0,5.85-1.67,5.85-4.49C258.23,40.89,256.26,40,253.67,39.58Z"/><path class="cls-23" d="M271.12,26.62l-2.36,2.64,1.5.46,3.47-3.1ZM267,28.7h-2l-3.53,3.17h2.56L266,30.09h.13l2,1.78h2.55Zm-1,4.85c-4.2,0-6.28,2.87-6.28,6.7v1c0,4.11,2.08,6.75,6.28,6.75s6.27-2.67,6.27-6.75v-1C272.31,36.3,270.23,33.55,266,33.55Zm3.11,7.61c0,2.26-.68,4.34-3.11,4.34s-3.16-2.09-3.16-4.34v-.8c0-2.26.73-4.35,3.16-4.35s3.11,2.08,3.11,4.35Z"/></g><path class="cls-6" d="M105.74,31.29a3.68,3.68,0,0,1,3.83,3.78h3.09v-.26a6.21,6.21,0,0,0-5.85-6.17,6.43,6.43,0,0,0-1.09-.08h-.08a9.5,9.5,0,0,0-1.64.16,1.8,1.8,0,0,0-.4.1c-3.3.8-5.27,3.63-5.27,8.06v2.18a14.3,14.3,0,0,0,.13,1.9,9.76,9.76,0,0,0,.48,1.88c1,2.89,3.43,4.45,6.77,4.45,4.59,0,7-3.06,7-6V41h-3.09a3.45,3.45,0,0,1-3.78,3.53c-2.56,0-4.24-1.7-4.24-5.5V36.89C101.55,33.13,103.24,31.29,105.74,31.29Z"/><path class="cls-6" d="M122.13,32.75a4,4,0,0,0-3.88,2.19h-.13V28H115v19h3.12V38.84c0-2.22,1.19-3.4,3-3.4S124,36.68,124,38.83v8.1h3.12v-8.8C127.14,34.86,125.16,32.75,122.13,32.75Z"/><path class="cls-6" d="M132.94,27.08l-2.62,3.77h2.57l3.21-3.77ZM130.31,33v14h3.17V33Z"/><path class="cls-6" d="M143.85,32.75a4.2,4.2,0,0,0-4,2.19h-.13V33h-3.05v14h3.1V38.78c0-2.21,1.14-3.34,3-3.34s2.89,1,2.89,3.25v8.24h3.12V37.71A4.58,4.58,0,0,0,143.85,32.75Z"/><path class="cls-6" d="M158.78,32.75a4,4,0,0,0-3.87,2.19h-.13V28h-3.12v19h3.12V38.84c0-2.22,1.19-3.4,3-3.4s2.89,1.24,2.89,3.39v8.1h3.12v-8.8C163.8,34.86,161.82,32.75,158.78,32.75Z"/><path class="cls-6" d="M180.19,33v2h-.11c-.57-1.31-1.94-2.21-4.07-2.21a4.92,4.92,0,0,0-4.91,3.58,8,8,0,0,0-.41,2.4c0,.1,0,.21,0,.32v1.72a8,8,0,0,0,.81,3.75,2.8,2.8,0,0,0,.21.34A4.78,4.78,0,0,0,176,47.12c2,0,3.47-.89,4-2.16h.12v6.7h3.12V33Zm-.06,7.63c0,2.26-1.08,4-3.12,4a2.78,2.78,0,0,1-2.34-1.09,1.55,1.55,0,0,1-.21-.33,5.18,5.18,0,0,1-.6-2.62V39.34c0-.22,0-.44,0-.64s0-.3.05-.45c.28-1.87,1.34-2.93,3.05-2.93,1.95,0,3.14,1.5,3.14,4Z"/><path class="cls-6" d="M195,33v8.38a2.83,2.83,0,0,1-2.95,3.13c-1.5,0-2.86-.7-2.86-3.09V33H186.1v9.27c0,3.26,2,4.9,4.83,4.9,2.29,0,3.58-1.09,4-2.19h.14v2h3V33Z"/><path class="cls-6" d="M209.81,33l-3.26,11.19h-.12L203.22,33h-3.44l4.92,14-.15.57a2.25,2.25,0,0,1-2.6,2,8.2,8.2,0,0,1-1.11-.08V51.8a12.12,12.12,0,0,0,1.76.14c3.35,0,4.57-1.93,5.45-4.31l.36-1c0-.1,4.69-13.71,4.69-13.71Z"/><path class="cls-6" d="M223.3,25.8h-2.57l3.43,3.08h2Zm-2.57,2.08h-2l-3.54,3.17h2.57l1.91-1.78h.13l2,1.78h2.57Zm5.11,12.75V39.38c0-4-2.12-6.65-6-6.65s-6.07,2.62-6.07,6.67v1.17c0,4,2.22,6.6,6.25,6.6s5.49-2.46,5.72-4.33h-3c-.19,1-1,1.86-2.72,1.86-2.13,0-3.15-1.69-3.15-3.63v-.44Zm-9-2.11c0-2,1.13-3.38,3-3.38s3,1.4,3,3.38v0h-6Z"/><path class="cls-6" d="M235.28,32.75a4.24,4.24,0,0,0-4,2.19h-.11V33h-3.07v14h3.12V38.78c0-2.21,1.13-3.34,2.95-3.34s2.9,1,2.9,3.25v8.24h3.12V37.71A4.59,4.59,0,0,0,235.28,32.75Z"/><path class="cls-6" d="M253.67,38.76c-1.53-.27-3.57-.47-3.57-2,0-1.14,1-1.83,2.44-1.83a2.21,2.21,0,0,1,2.5,2h2.78c0-2.53-1.92-4.24-5.21-4.24-2.88,0-5.49,1.26-5.49,4.32,0,2.73,2.07,3.49,4.61,4,1.86.36,3.46.58,3.46,2,0,1-.77,1.89-2.65,1.89-1.61,0-2.5-.8-2.64-1.88h-3c0,2.5,2.13,4.11,5.52,4.11,3.61,0,5.85-1.67,5.85-4.48C258.23,40.07,256.26,39.2,253.67,38.76Z"/><path class="cls-6" d="M271.12,25.8l-2.36,2.64,1.5.46,3.47-3.1ZM267,27.88h-2l-3.53,3.17h2.56L266,29.27h.13l2,1.78h2.55Zm-1,4.85c-4.2,0-6.28,2.87-6.28,6.7v1c0,4.1,2.08,6.74,6.28,6.74s6.27-2.66,6.27-6.74v-1C272.31,35.48,270.23,32.73,266,32.73Zm3.11,7.61c0,2.26-.68,4.35-3.11,4.35s-3.16-2.1-3.16-4.35v-.8c0-2.26.73-4.35,3.16-4.35s3.11,2.08,3.11,4.35Z"/><text class="cls-24" transform="translate(154.54 68.96)">Xem chi tiết</text><circle class="cls-25" cx="44.31" cy="36.75" r="30.63"/></g></g></g></svg>